PathFileType	4	(X/Y/Z)	C:/Users/beibeiliu/ov580/test_trc/User3\sequence.51_training_dense_left.trc
DataRate	CameraRate	NumFrames	NumMarkers	Units	OrigDataRate	OrigDataStartFrame	OrigNumFrames
120	120	17	19	mm	120	1	100
Frame#	Time	ThumbCMC			ThumbMCP			ThumbIP			ThumbTip			IndexMCP			IndexPIP			IndexTip			MiddleMCP			MiddlePIP			MiddleTip			RingMCP			RingPIP			RingTip			PinkyMCP			PinkyPIP			PinkyTip			BackHand1			BackHand2			BackHand3	
		X0	Y0	Z0	X1	Y1	Z1	X2	Y2	Z2	X3	Y3	Z3	X4	Y4	Z4	X5	Y5	Z5	X6	Y6	Z6	X7	Y7	Z7	X8	Y8	Z8	X9	Y9	Z9	X10	Y10	Z10	X11	Y11	Z11	X12	Y12	Z12	X13	Y13	Z13	X14	Y14	Z14	X15	Y15	Z15	X16	Y16	Z16	X17	Y17	Z17	X18	Y18	Z18	
0	0	-159.068	-17.8428	57.8899	-163.506	-15.4093	32.2961	-179.036	-14.7635	6.7675	-188.46	-13.0458	-15.5621	-109.935	-26.5857	-6.46983	-96.1381	3.45444	-8.71243	-103.776	16.8415	25.2859	-91.0222	-30.5956	-0.150758	-78.3389	0.54725	4.24947	-93.3635	8.94281	39.8716	-77.7803	-33.3223	12.5239	-68.4352	-6.50862	18.4351	-86.4097	2.11951	46.5575	-64.4751	-37.5826	31.6256	-62.6686	-12.8655	35.3873	-85.0588	-2.33942	54.0162	-109.764	-65.967	50.1992	-122.843	-61.6467	84.748	-142.44	-49.9485	54.1769	
1	0.00833333	-157.886	-23.744	57.283	-165.817	-22.0764	31.9619	-175.017	-21.9834	6.89921	-188	-19.6157	-15.6859	-109.189	-34.3094	-8.10768	-93.2356	-5.78508	-20.1932	-93.0714	19.7236	2.77253	-89.61	-37.749	-5.22268	-75.5549	-12.4823	-12.7032	-78.8992	15.4438	17.5259	-72.9532	-43.8081	13.3258	-62.7797	-16.3555	5.00791	-74.1944	10.0658	29.6828	-65.0678	-43.3584	34.3163	-55.4468	-13.2493	28.5669	-68.7777	6.43811	40.2787	-106.104	-66.1318	57.1296	-120.506	-64.5258	83.398	-140.096	-52.8711	53.5143	
2	0.0166667	-158.575	-27.1038	58.8507	-165.229	-25.4268	34.4822	-179.32	-26.6807	3.52213	-186.317	-23.4873	-12.4345	-111.775	-36.8311	-13.6337	-95.7028	-19.212	-28.368	-90.0017	11.8978	-25.7499	-88.3674	-47.2366	-2.70607	-72.7886	-24.2123	-20.6343	-67.9844	12.0341	-11.2518	-76.4738	-47.8138	12.6749	-57.2705	-22.0474	-1.32746	-56.1867	8.33719	8.72167	-60.6062	-45.8652	35.4808	-47.4388	-21.9182	25.5973	-54.3184	3.48711	26.6146	-103.213	-67.7473	57.8453	-118.188	-64.5079	83.4286	-137.94	-55.7676	56.9049	
3	0.025	-160.477	-31.3686	52.6012	-165.713	-29.2359	30.7818	-179.314	-29.0799	4.64104	-189.155	-25.6673	-11.8704	-111.067	-42.423	-13.1124	-100.254	-25.7162	-37.4626	-85.9256	-4.84681	-41.8117	-90.196	-51.1361	-3.0727	-70.1979	-33.3294	-25.8611	-57.4845	-1.02214	-29.9419	-73.5477	-49.3663	10.4767	-53.6038	-31.5645	-4.49289	-45.4439	-6.41179	-9.47249	-63.5128	-46.0048	35.087	-45.2422	-28.8944	21.8339	-37.8318	-3.96454	16.8557	-101.628	-66.6562	54.0607	-113.179	-66.9867	83.4061	-136.88	-57.9567	52.6764	
4	0.0333333	-158.749	-33.7538	55.9041	-168.868	-32.7867	27.5373	-184.412	-31.7308	4.56406	-194.668	-29.2494	-14.2746	-117.347	-46.7164	-13.2595	-106.076	-38.051	-37.768	-94.7937	-17.8276	-55.8738	-89.3812	-54.3077	-10.3668	-72.3182	-39.9793	-32.1328	-57.6292	-17.7103	-45.5883	-70.1033	-50.5285	12.8338	-53.4214	-37.1766	-9.4497	-38.2905	-14.399	-19.0617	-57.4035	-43.9141	36.2167	-45.689	-31.9152	22.0041	-29.6602	-12.7756	13.463	-100.633	-68.5446	53.3911	-116.49	-67.1583	78.0355	-135.295	-59.1897	51.4757	
5	0.0416667	-160.666	-38.9664	51.5839	-171.823	-36.9433	28.5836	-185.949	-36.6242	1.43831	-199.919	-33.1811	-14.6273	-122.868	-50.3525	-13.0845	-108.433	-43.3357	-41.0768	-102.923	-29.1912	-60.726	-89.8848	-57.4151	-8.39543	-77.9181	-49.0689	-32.6883	-59.299	-29.9807	-51.8313	-72.0102	-52.4125	11.6937	-54.257	-42.3803	-9.31776	-39.5627	-27.1898	-22.5478	-61.171	-45.3018	33.4307	-48.7388	-34.7445	22.5827	-30.1842	-18.8564	13.2466	-105.875	-68.8787	53.8091	-115.409	-68.9086	79.9454	-140.001	-61.8071	50.6304	
6	0.05	-167.82	-37.972	52.8463	-179.912	-34.7796	29.5496	-190.972	-30.4992	7.64388	-202.82	-28.1632	-11.699	-125.84	-51.4266	-16.2663	-123.69	-45.4897	-39.0713	-112.536	-35.1188	-62.2607	-97.4905	-58.8908	-10.096	-89.5936	-53.0683	-33.1721	-70.8751	-38.229	-60.2701	-84.3302	-54.2042	8.44951	-65.2497	-47.8213	-11.2181	-48.0981	-35.1343	-33.3834	-65.4851	-47.2022	31.8837	-49.4717	-36.9757	16.8159	-33.6238	-27.986	6.36983	-111.817	-66.6709	52.8801	-118.814	-69.3938	81.4781	-143.069	-63.4395	53.6055	
7	0.0583333	-170.813	-22.9342	61.3007	-181.276	-15.9162	36.8861	-196.593	-10.7874	9.0176	-207.067	-3.33653	-6.06287	-140.404	-43.3783	-14.9692	-136.686	-36.6279	-43.1727	-126.788	-31.1158	-63.2153	-114.62	-55.6513	-13.3669	-105.478	-51.8229	-36.9077	-90.5023	-39.0656	-69.0358	-97.5517	-56.2277	3.03397	-78.4846	-54.4499	-17.0067	-63.92	-46.852	-37.7923	-75.7068	-55.6902	22.8713	-64.0202	-50.2059	9.62836	-44.2911	-44.1426	-8.39873	-117.725	-65.9241	53.0813	-126.673	-65.7687	78.4575	-154.472	-53.4219	53.0416	
8	0.0666667	-159.99	7.77052	63.8449	-167.37	19.9869	40.3948	-176.481	32.1953	17.9668	-186.74	45.5563	-0.55044	-152.624	-16.2828	-10.8784	-148.741	-11.0872	-41.9503	-140.953	-2.27097	-66.5641	-137.947	-38.0856	-12.7932	-127.309	-38.4606	-43.4917	-114.5	-30.4434	-71.1892	-119.983	-51.1913	-3.11536	-108.412	-54.414	-25.5747	-94.79	-49.1789	-51.7698	-101.887	-60.8386	18.7464	-91.3714	-61.4817	-0.750382	-74.726	-64.0452	-21.6855	-137.463	-51.6294	47.984	-141.358	-51.9586	79.3527	-159.877	-25.8064	56.7315	
9	0.075	-138.498	29.5155	70.9847	-142.765	52.0829	49.6603	-146.957	70.2726	31.1946	-146.236	82.3436	13.5719	-151.96	17.555	-7.84452	-150.485	20.1337	-32.9282	-143.786	25.7279	-60.2721	-151.738	-7.12476	-14.1724	-147.726	-5.30084	-41.9791	-134.871	-3.89651	-71.4443	-142.819	-26.8498	-6.94908	-137.676	-35.9339	-28.577	-126.163	-35.129	-56.0901	-130.08	-45.1448	13.057	-123.47	-54.0732	-11.2353	-115.477	-57.9332	-32.1957	-150.984	-31.5797	47.9828	-152.642	-30.9617	74.5669	-157.117	4.2958	61.1367	
10	0.0833333	-115.615	40.0127	72.9338	-110.354	59.6056	55.2823	-106.249	80.4233	35.3584	-101.501	97.4488	21.3653	-140.104	39.8243	-3.98123	-137.642	48.9028	-28.1132	-132.892	50.6926	-57.1429	-152.847	20.8903	-11.5186	-150.661	24.2437	-36.6109	-144.192	21.1459	-68.7027	-154.541	-7.11059	-3.13274	-156.038	-7.49443	-27.769	-150.528	-8.31865	-57.9497	-149.977	-24.6797	12.1049	-153.352	-30.6582	-12.4619	-151.193	-35.5803	-34.8157	-157.306	-7.26959	50.2888	-155.121	-8.65278	75.3351	-145.817	23.8197	64.4146	
11	0.0916667	-95.0179	28.6685	74.6642	-79.4851	50.6532	58.2108	-68.6285	67.845	37.7707	-60.5692	76.8246	20.7108	-120.061	49.5879	-1.77016	-116.333	56.978	-27.7992	-114.323	58.5576	-50.6768	-141.632	37.2639	-5.2196	-142.956	41.2832	-34.8588	-138.64	41.0374	-68.85	-154.869	14.735	2.02989	-157.376	18.6349	-23.3475	-160.815	15.4292	-50.6214	-160.52	-1.4633	10.5501	-165.941	-4.17224	-6.79815	-173.982	-8.37708	-32.6577	-155.7	13.2689	51.9488	-153.62	6.7198	80.2877	-125.556	33.5153	64.7828	
12	0.1	-82.623	12.0171	66.735	-63.1704	18.7954	49.1752	-41.4561	28.9845	29.4822	-28.753	34.3759	13.6232	-99.2319	40.5417	-5.91163	-93.1559	44.9394	-29.8695	-92.8819	46.4374	-52.5118	-123.621	40.7373	-8.01545	-126.316	44.5864	-36.5242	-127.108	45.1637	-64.9106	-149.261	27.9478	2.16593	-149.389	33.8141	-24.4388	-156.412	33.8562	-49.4866	-162.511	12.7592	17.5154	-169.341	16.5901	-2.02268	-178.445	21.5766	-27.7134	-140.025	24.5812	50.8303	-140.098	17.4651	83.0406	-108.996	26.9457	64.9554	
13	0.108333	-76.0146	-7.9508	66.5851	-52.8199	-5.19807	45.0892	-34.6839	-3.16822	22.2011	-21.7734	-4.97602	5.27268	-94.4622	23.6662	-6.88311	-87.4942	25.5194	-31.4515	-85.4548	26.1241	-60.45	-115.758	32.8237	-12.0464	-115.315	34.7965	-38.4479	-116.502	35.8251	-66.3245	-139.272	27.994	-0.612835	-143.544	31.7932	-20.9206	-149.033	34.9946	-47.4306	-155.617	19.8308	14.5948	-167.275	23.9644	-5.12362	-173.682	29.9115	-24.3093	-131.683	22.725	50.0417	-130.56	19.3261	80.2891	-98.735	18.4251	64.537	
14	0.116667	-73.9259	-12.2077	66.1924	-54.5591	-14.6217	47.2743	-35.695	-15.8439	23.2357	-25.5924	-18.1489	4.53266	-94.2708	18.5239	-9.67768	-89.4442	18.9048	-33.2036	-86.5749	18.3247	-59.5774	-114.406	26.416	-8.43768	-114.651	29.2473	-36.3304	-119.212	31.7868	-70.4846	-138.593	23.7157	1.24185	-144.275	28.6193	-22.109	-148.804	30.1021	-46.0024	-160.565	16.4647	16.8667	-168.217	19.3853	0.999811	-179.084	25.4908	-24.1297	-133.961	20.6766	54.7323	-128.876	14.1464	80.0555	-99.2824	14.3772	62.195	
15	0.125	-75.3526	-6.19565	66.205	-57.2641	-5.93581	43.6697	-37.6173	-3.33672	18.7758	-26.3778	-7.85227	5.14152	-98.9134	23.0655	-5.30236	-92.6639	26.0717	-30.8122	-95.1956	28.9052	-59.2699	-126.051	27.5768	-4.06846	-123.849	32.7797	-35.9648	-127.572	34.6766	-63.8916	-147.31	17.9609	5.4332	-151.673	21.1845	-18.9473	-160.566	20.9652	-45.0765	-166.713	3.95689	18.9209	-172.969	3.82598	-0.757802	-182.66	3.09739	-24.2313	-138.523	15.5825	53.3339	-134.606	10.5785	83.0832	-103.598	18.8879	61.8578	
16	0.133333	-78.1019	5.77162	68.4066	-59.7612	10.4461	41.5764	-44.292	14.3226	21.2668	-31.1821	16.9952	0.670266	-111.363	28.0751	-0.154041	-109.217	34.95	-29.9572	-107.808	39.6961	-52.9203	-139.3	22.198	0.141559	-143.192	29.8975	-30.1076	-145.559	32.2142	-60.0519	-152.424	5.97756	4.35442	-163.714	5.12836	-20.0374	-169.854	0.400358	-48.3017	-166.195	-17.743	16.4204	-171.842	-24.0622	-0.791069	-177.425	-32.5525	-22.1495	-145.718	5.71783	58.8523	-140.796	4.38718	82.9295	-115.798	19.9006	63.2936	
